<svg width="144" height="64" viewBox="0 0 144 64" fill="none" xmlns="http://www.w3.org/2000/svg">
<path d="M28.4444 3.55556C28.4444 3.55556 28.4444 0 32 0C35.5556 0 35.5556 3.55556 35.5556 3.55556V7.11111C35.5556 7.11111 35.5556 10.6667 32 10.6667C28.4444 10.6667 28.4444 7.11111 28.4444 7.11111V3.55556ZM60.4444 28.4444C60.4444 28.4444 64 28.4444 64 32C64 35.5556 60.4444 35.5556 60.4444 35.5556H56.8889C56.8889 35.5556 53.3333 35.5556 53.3333 32C53.3333 28.4444 56.8889 28.4444 56.8889 28.4444H60.4444ZM7.11111 28.4444C7.11111 28.4444 10.6667 28.4444 10.6667 32C10.6667 35.5556 7.11111 35.5556 7.11111 35.5556H3.55556C3.55556 35.5556 0 35.5556 0 32C0 28.4444 3.55556 28.4444 3.55556 28.4444H7.11111ZM16.2151 12.9653C16.2151 12.9653 18.7289 15.4791 16.2151 17.9929C13.7013 20.5067 11.1876 17.9929 11.1876 17.9929L8.672 15.4809C8.672 15.4809 6.15822 12.9671 8.672 10.4516C11.1876 7.93778 13.7013 10.4516 13.7013 10.4516L16.2151 12.9653ZM53.5484 50.2987C53.5484 50.2987 56.0622 52.8124 53.5484 55.3262C51.0347 57.84 48.5209 55.3262 48.5209 55.3262L46.0071 52.8124C46.0071 52.8124 43.4933 50.2987 46.0071 47.7849C48.5209 45.2711 51.0347 47.7849 51.0347 47.7849L53.5484 50.2987ZM52.8142 17.9929C52.8142 17.9929 50.3004 20.5067 47.7867 17.9929C45.2729 15.4791 47.7867 12.9653 47.7867 12.9653L50.3004 10.4516C50.3004 10.4516 52.8142 7.93778 55.328 10.4516C57.8418 12.9653 55.328 15.4791 55.328 15.4791L52.8142 17.9929ZM15.4809 55.3262C15.4809 55.3262 12.9671 57.84 10.4533 55.3262C7.93956 52.8124 10.4533 50.2987 10.4533 50.2987L12.9671 47.7849C12.9671 47.7849 15.4809 45.2711 17.9947 47.7849C20.5084 50.2987 17.9947 52.8124 17.9947 52.8124L15.4809 55.3262ZM28.4444 56.8889C28.4444 56.8889 28.4444 53.3333 32 53.3333C35.5556 53.3333 35.5556 56.8889 35.5556 56.8889V60.4444C35.5556 60.4444 35.5556 64 32 64C28.4444 64 28.4444 60.4444 28.4444 60.4444V56.8889Z" fill="#FFAC33"/>
<path d="M32 49.7778C41.8184 49.7778 49.7778 41.8184 49.7778 32C49.7778 22.1816 41.8184 14.2222 32 14.2222C22.1816 14.2222 14.2222 22.1816 14.2222 32C14.2222 41.8184 22.1816 49.7778 32 49.7778Z" fill="#FFAC33"/>
<path d="M80.0694 21.1742V16.3575H76.7292V21.1742H76.2854L73.5099 16.3575H69.9599L73.4777 22.2312L69.8631 28H73.7116L76.2612 23.7077H76.7292V28H80.0694V23.7077H80.5374L83.087 28H86.9759L83.3209 22.1666L86.7984 16.3575H83.2887L80.5132 21.1742H80.0694ZM90.5472 28L93.0806 23.2397H93.242V28H96.4693V18.9313H93.242L90.7086 23.5705H90.5472V18.9313H87.3199V28H90.5472ZM102.921 28C105.083 28 106.455 26.935 106.455 25.4504C106.455 24.2563 105.559 23.385 104.276 23.3123V23.151C105.333 23.0219 106.052 22.2231 106.052 21.1742C106.052 19.8107 104.833 18.9313 102.776 18.9313H97.5718V28H102.921ZM100.799 20.795H101.719C102.413 20.795 102.816 21.1339 102.816 21.6664C102.816 22.2151 102.389 22.562 101.687 22.562H100.799V20.795ZM100.799 24.2886H101.896C102.655 24.2886 103.042 24.6839 103.042 25.2164C103.042 25.749 102.655 26.1362 101.896 26.1362H100.799V24.2886ZM110.47 28L113.003 23.2397H113.165V28H116.392V18.9313H113.165L110.631 23.5705H110.47V18.9313H107.243V28H110.47ZM125.955 28H129.263V18.9313H125.955V22.1989H123.503V18.9313H120.195V28H123.503V24.6113H125.955V28ZM132.818 28.1291C133.956 28.1291 134.948 27.6531 135.295 26.935H135.457V28H138.684V21.8278C138.684 19.843 137.208 18.7054 134.618 18.7054C132.012 18.7054 130.358 19.8349 130.245 21.6906H133.165C133.351 21.2711 133.762 21.0694 134.416 21.0694C135.053 21.0694 135.441 21.3598 135.441 21.8278V22.4974L133.65 22.6023C131.245 22.7395 129.93 23.7158 129.93 25.3697C129.93 27.0318 131.084 28.1291 132.818 28.1291ZM134.109 25.9023C133.48 25.9023 133.085 25.5957 133.085 25.1196C133.085 24.6759 133.488 24.3854 134.182 24.337L135.441 24.2483V24.7808C135.441 25.4101 134.852 25.9023 134.109 25.9023ZM74.2603 48V44.9502L75.172 43.7238L77.7216 48H81.6912L77.6812 41.5292L81.5136 36.3575H77.9233L74.4216 41.1581H74.2603V36.3575H70.8393V48H74.2603ZM86.3356 48.2259C89.337 48.2259 91.0878 46.4751 91.0878 43.4576C91.0878 40.5046 89.2886 38.7054 86.3356 38.7054C83.3987 38.7054 81.5834 40.5207 81.5834 43.4576C81.5834 46.467 83.3422 48.2259 86.3356 48.2259ZM86.3356 45.757C85.4723 45.757 84.972 44.926 84.972 43.4656C84.972 42.0456 85.4884 41.1742 86.3356 41.1742C87.1827 41.1742 87.6991 42.0456 87.6991 43.4656C87.6991 44.9179 87.1989 45.757 86.3356 45.757ZM105.032 48V36.3575H101.611V40.9241C101.224 41.2469 100.578 41.4486 99.7715 41.4486C98.5693 41.4486 97.9158 40.787 97.9158 39.5606V36.3575H94.4948V39.9398C94.4948 42.5943 96.2376 44.2886 98.8033 44.2886C99.8683 44.2886 100.683 44.1353 101.45 43.74H101.611V48H105.032ZM108.878 48.1291C110.015 48.1291 111.008 47.6531 111.355 46.935H111.516V48H114.743V41.8278C114.743 39.843 113.267 38.7054 110.677 38.7054C108.071 38.7054 106.417 39.8349 106.304 41.6906H109.225C109.41 41.2711 109.822 41.0694 110.475 41.0694C111.113 41.0694 111.5 41.3598 111.5 41.8278V42.4974L109.709 42.6023C107.304 42.7395 105.989 43.7158 105.989 45.3697C105.989 47.0318 107.143 48.1291 108.878 48.1291ZM110.169 45.9023C109.539 45.9023 109.144 45.5957 109.144 45.1196C109.144 44.6759 109.547 44.3854 110.241 44.337L111.5 44.2483V44.7808C111.5 45.4101 110.911 45.9023 110.169 45.9023ZM121.566 48H124.874V38.9313H121.566V42.1989H119.113V38.9313H115.805V48H119.113V44.6113H121.566V48ZM132.73 41.3437V38.9313H125.977V48H129.285V41.3437H132.73ZM138.859 45.2326C138.713 45.6844 138.197 45.9507 137.463 45.9507C136.495 45.9507 135.906 45.3455 135.906 44.3451V44.1676H141.876V43.3043C141.876 40.3836 140.206 38.7054 137.31 38.7054C134.405 38.7054 132.67 40.5126 132.67 43.5463C132.67 46.5477 134.357 48.2259 137.366 48.2259C139.819 48.2259 141.554 47.0641 141.836 45.2326H138.859ZM137.334 40.9806C138.157 40.9806 138.657 41.4808 138.713 42.3683H135.922C135.986 41.5212 136.543 40.9806 137.334 40.9806Z" fill="white"/>
</svg>
